# xmcd
#
# Track frame offsets: 
#        150
#        10730
#        21492
#        36062
#        57882
#        73567
#        86495
#        97042
#        107162
#        120667
#        135545
#        150152
#        159980
#        174415
#        184267
#        198265
#        208745
#
# Disc length: 2945 seconds
#
# Revision: 0
# Processed by: cddbd v1.5.2PL0 Copyright (c) Steve Scherf et al.
# Submitted via: ExactAudioCopyFreeDBPlugin 1.0
#
DISCID=da0b7f11
DTITLE=Elmore D - L'intégrale cazî complète CD1 Basse-Moûse Blues
DYEAR=1997
DGENRE=Blues
TTITLE0=Sometimes i think i love you
TTITLE1=Feather bed
TTITLE2=The twelves
TTITLE3=New sivester and his mule
TTITLE4=Bukka's jitterbug blues
TTITLE5=If i had religion
TTITLE6=Broke and hungry
TTITLE7=I'm talking about you n° 2
TTITLE8=Back step blues
TTITLE9=Sun going down
TTITLE10=Evening fax blues
TTITLE11=I'm talking about you n° 1
TTITLE12=Tricks ain't walking no more
TTITLE13=In my girlish days
TTITLE14=Fleetw. mac ramblin' pony (trad.)
TTITLE15=Warm it up to me
TTITLE16=Hidding on me
EXTD=
EXTT0=
EXTT1=
EXTT2=
EXTT3=
EXTT4=
EXTT5=
EXTT6=
EXTT7=
EXTT8=
EXTT9=
EXTT10=
EXTT11=
EXTT12=
EXTT13=
EXTT14=
EXTT15=
EXTT16=
PLAYORDER=
